<?xml version="1.0" encoding="utf-8"?>
<!-- Generator: Adobe Illustrator 20.1.0, SVG Export Plug-In . SVG Version: 6.00 Build 0)  -->
<svg version="1.1" id="Layer_1" xmlns="http://www.w3.org/2000/svg" xmlns:xlink="http://www.w3.org/1999/xlink" x="0px" y="0px"
	 width="146px" height="126.9px" viewBox="0 0 146 126.9" style="enable-background:new 0 0 146 126.9;" xml:space="preserve">
<style type="text/css">
	.st0{fill:#2EFFD1;}
	.st1{fill:#a2ffe8;}
</style>
<g>
	<rect x="32.4" y="27.1" class="st0" width="30.7" height="7.4"/>
	<rect x="21" y="6.8" class="st0" width="11.4" height="7.4"/>
	<rect x="39.6" y="6.8" class="st0" width="30.7" height="7.4"/>
	<rect x="47.8" y="40.5" class="st0" width="69.6" height="7.4"/>
	<rect x="47.7" y="67.2" class="st0" width="69.6" height="7.4"/>
	<rect x="47.7" y="80.6" class="st0" width="38.1" height="7.4"/>
	<rect x="123.3" y="40.5" class="st0" width="22.6" height="7.4"/>

		<rect x="47.8" y="53.8" transform="matrix(-1 -1.224647e-16 1.224647e-16 -1 118.1615 115.128)" class="st0" width="22.6" height="7.4"/>

		<rect x="76.3" y="53.8" transform="matrix(-1 -1.224647e-16 1.224647e-16 -1 181.2896 115.128)" class="st0" width="28.6" height="7.4"/>
	<rect x="69.1" y="27.1" class="st0" width="66.5" height="7.4"/>
	<path class="st1" d="M4.8,10.6l11.5,6.6l-2.5,4L0,12.6v-4L13.9,0l2.4,3.8L4.8,10.6z"/>
	<path class="st1" d="M90.7,12.6l-13.8,8.5l-2.5-3.8l11.5-6.8L74.4,4l2.5-4l13.8,8.5V12.6z"/>
	<path class="st1" d="M4.8,111.8l11.5,6.6l-2.5,4L0,113.9v-4l13.9-8.6l2.4,3.8L4.8,111.8z"/>
	<path class="st1" d="M35.3,94l4.3,2l-14.8,30.9l-4.4-2L35.3,94z"/>
	<path class="st1" d="M59.4,113.9l-13.8,8.5l-2.5-3.8l11.5-6.8l-11.5-6.6l2.5-4l13.8,8.5V113.9z"/>
</g>
</svg>
