<svg width="88" height="73" viewBox="0 0 88 73" xmlns="http://www.w3.org/2000/svg"><title>logo</title><g fill="#CBCDDA" fill-rule="evenodd"><path d="M7.068 50.587V28.383h14.789L27.684 54.5 36.004 0l2.934 39.794L50.7 26.632l6.89 25.078 7.073-35.763L78.01 40.568V30.176h3.262v23.435L66.149 25.803l-7.944 40.314-9.086-32.404-9.298 10.238-.074 6.552-3.267.218L34.897 29.7l-6.56 42.664-9.125-40.453h-8.867v18.712l-3.277-.035z"/><path d="M3.737 24.807v30.427h80.466v-30.41l-80.466-.017zm-3.331 0v-3.545h3.332l80.466.02h3.33v37.496H.406V24.807z"/></g></svg>