<svg xmlns="http://www.w3.org/2000/svg" width="1232.585" height="962.75" viewBox="0 0 1232.585 962.75"><path fill="#535353" d="M1231.757 1.111v960l-164.07-378.67z"/><path fill="#545454" d="M1041.777 383.121l4.66-25.01-11-4-39.25-8.62-41.5-5.88-25.33-3.17 302.4-335.33-164.07 581.33-125 59.229-7.75-67.54v-.009l34.08-10.68 27.67-22.66 21-59.67 12.25-84.5 11.3-12.88.45-.12z"/><path fill="#484848" d="M1231.757 1.111l-302.4 335.33-4-216.85 4-61.31z"/><path fill="#5F5F5F" d="M1067.687 582.441l164.07 378.67-338.4-63z"/><path fill="#545454" d="M1231.757 1.111l-302.4 57.17-33.67-57.17z"/><path fill="#484848" d="M1231.757 961.111h-343.07l4.67-63z"/><path fill="#545454" d="M1067.687 582.441l-174.33 315.67 10.95-75.09 9.05-64.62z"/><path fill="#6B6B6B" d="M1067.687 582.441l-154.33 175.96 29.33-116.731z"/><path fill="#1A1A1A" d="M1046.437 358.111l-4.66 25.01-.16.18-6.18-29.19z"/><path fill="#1E1E1E" d="M1035.437 354.111l6.18 29.19-.2.23-20.23-5.67z"/><path fill="#3B3B3B" d="M1041.417 383.531l-.18.2-28.8 7.88 8.75-13.75z"/><path fill="#121212" d="M1041.237 383.731l-11.3 12.88-17.5-5z"/><path fill="#383838" d="M1035.437 354.111l-14.25 23.75-25-32.37z"/><path fill="#0C0C0C" d="M1029.937 396.611l-12.25 84.5-5.25-89.5z"/><path fill="#121212" d="M996.187 345.491l25 32.37-30.49-16-20.01-10.5z"/><path fill="#222" d="M1021.187 377.861l-8.75 13.75-3.98-5.45-13.66-18.69-4.1-5.61z"/><path fill="#3C3C3C" d="M1012.437 391.611l5.25 89.5-19.33 34.67z"/><path fill="#3E3E3E" d="M1017.687 481.111l-21 59.67 1.67-25z"/><path fill="#545454" d="M1008.457 386.161l3.98 5.45-97.08 37.83 16.33-37.83zM1012.437 391.611l-14.08 124.17-72.67 1.62 11.33-76.79z"/><path fill="#484848" d="M1012.437 391.611l-75.42 49-21.66-11.17z"/><path fill="#2D2D2D" d="M1008.457 386.161l-76.77 5.45 3.25-10.75z"/><path fill="#323232" d="M1008.457 386.161l-73.52-5.3 59.86-13.39z"/><path fill="#4F4F4F" d="M998.357 515.781l-1.67 25-21.33 8.66z"/><path fill="#535353" d="M998.357 515.781l-23 33.66-49.67-32.04z"/><path fill="#313131" d="M996.687 540.781l-27.67 22.66 6.34-14z"/><path fill="#1B1B1B" d="M996.187 345.491l-25.5 5.87-16-11.75z"/><path fill="#545454" d="M990.697 361.861l4.1 5.61-59.86 13.39 35.75-29.5z"/><path fill="#424242" d="M975.357 549.441l-6.34 14-36.33 2.67z"/><path fill="#545454" d="M975.357 549.441l-42.67 16.67-7-48.71z"/><path fill="#484848" d="M970.687 351.361l-35.75 29.5-10.75-32.74 8.75-1.26z"/><path fill="#1A1A1A" d="M970.687 351.361l-37.75-4.5 21.75-7.25z"/><path fill="#191919" d="M969.017 563.441l-34.08 10.68-10.58 3.32 8.33-11.33z"/><path fill="#2A2A2A" d="M954.687 339.611l-21.75 7.25-3.58-10.42z"/><path fill="#686868" d="M934.937 574.13l7.75 67.54-59.25-23.309 40.92-40.92 10.58-3.32z"/><path fill="#464646" d="M942.687 641.67l-29.33 116.731-9.05-22.62-24.93-62.34-16.52-41.33z"/><path fill="#494949" d="M942.687 641.67l-79.83-9.559 20.58-13.75z"/><path fill="#848484" d="M937.017 440.611l-11.33 76.79-10.33-29.62-11.34-36.67z"/><path fill="#565656" d="M937.017 440.611l-33 10.5 11.34-21.67z"/><path fill="#474747" d="M924.187 348.121l10.75 32.74-53.25 29.34z"/><path fill="#5B5B5B" d="M934.937 380.861l-3.25 10.75-50 18.59z"/><path fill="#343434" d="M929.357 336.441l3.58 10.42-37.25-5.25 22.81-3.5h.01z"/><path fill="#1D1D1D" d="M932.937 346.861l-8.75 1.26-60.28 8.66 31.78-15.17z"/><path fill="#747474" d="M925.687 517.401l7 48.71-77-21.75z"/><path fill="#474747" d="M932.687 566.111l-8.33 11.33-61.5-18.6z"/><path fill="#656565" d="M932.687 566.111l-69.83-7.27-7.17-14.48z"/><path fill="#4B4B4B" d="M931.687 391.611l-16.33 37.83-33.67-19.24z"/><path fill="#4C4C4C" d="M895.687 1.111l33.67 57.17-12-1.29-31.42-3.38z"/><path fill="#535353" d="M929.357 58.281l-4 61.31-12.04-.45-4.56-.17 8.6-61.98z"/><path fill="#6B6B6B" d="M925.357 119.591l4 216.85-9-13.22-20.05-29.46-8.95-146.32z"/><path fill="#484848" d="M920.357 323.221l9 13.22-10.85 1.67z"/><path fill="#747474" d="M915.357 487.781l10.33 29.62-58.25-26.96z"/><path fill="#4D4D4D" d="M925.687 517.401l-70 26.96 11.75-53.92z"/><path fill="#3B3B3B" d="M925.357 119.591l-34 27.85-77.34-32 94.43 3.52.22.63.09-.62 4.56.17z"/><path fill="#494949" d="M924.357 577.441l-40.92 40.92-4.25-26.5z"/><path fill="#4D4D4D" d="M924.357 577.441l-45.17 14.42-8.73-17.64z"/><path fill="#0D0D0D" d="M924.357 577.441l-53.9-3.22-7.6-15.38z"/><path fill="#454545" d="M924.187 348.121l-42.5 62.08-17.8-53.41v-.01h.02z"/><path fill="#535353" d="M900.307 293.761l20.05 29.46-23.38 5.04z"/><path fill="#6B6B6B" d="M920.357 323.221l-1.85 14.89h-.01l-21.52-9.85z"/><path fill="#565656" d="M896.977 328.261l21.52 9.85-22.81 3.5 1.1-11.39z"/><path fill="#333" d="M917.357 56.991l-8.6 61.98-.31-.01-22.51-65.35z"/><path fill="#1E1E1E" d="M915.357 429.441l-11.34 21.67-30.33-28.08z"/><path fill="#6A6A6A" d="M904.017 451.111l11.34 36.67-30.34-3.67z"/><path fill="#373737" d="M915.357 429.441l-41.67-6.41 8-12.83z"/><path fill="#4B4B4B" d="M915.357 487.781l-47.92 2.66 17.58-6.33z"/><path fill="#484848" d="M904.307 735.781l9.05 22.62-40-3.62z"/><path fill="#606060" d="M913.357 758.401l-9.05 64.62-45.62-10.24z"/><path fill="#505050" d="M913.357 758.401l-54.67 54.38 14.67-58z"/><path fill="#272727" d="M885.937 53.611l22.51 65.35-94.43-3.52z"/><path fill="#686868" d="M879.377 673.441l24.93 62.34h-24.93v-20.95z"/><path fill="#6B6B6B" d="M904.307 823.021l-10.95 75.09-34.67-85.33z"/><path fill="#4C4C4C" d="M904.307 735.781l-30.95 19 6.02-19z"/><path fill="#383838" d="M904.017 451.111l-19 33-16.83-28.53z"/><path fill="#2D2D2D" d="M904.017 451.111l-35.83 4.47 7-14.97-1.5-17.58z"/><path fill="#323232" d="M891.357 147.441l8.95 146.32-52.29-105.65z"/><path fill="#818181" d="M848.017 188.111l52.29 105.65-105.52 6.95z"/><path fill="#7F7F7F" d="M900.307 293.761l-3.33 34.5-.19 1.96-10.85-1.96h-29.38l-3.37-1.15-74.32-25.35 15.92-1.05z"/><path fill="#5E5E5E" d="M896.787 330.221l-1.1 11.39-9.75-13.35z"/><path fill="#202020" d="M895.687 1.111l-9.75 52.5-146.58-52.5z"/><path fill="#3C3C3C" d="M885.937 328.261l9.75 13.35-39.13-13.35z"/><path fill="#0A0A0A" d="M895.687 341.611l-31.78 15.17h-.02v.01l-37.7 17.99 8.5-16.67 4.9-1.33z"/><path fill="#2D2D2D" d="M895.687 341.611l-56.1 15.17 13.6-29.67 3.37 1.15z"/><path fill="#696969" d="M858.687 812.781l34.67 85.33-49.34 2z"/><path fill="#7B7B7B" d="M893.357 898.111l-4.67 63h-68.3z"/><path fill="#6B6B6B" d="M893.357 898.111l-72.97 63 23.63-61z"/><path fill="#242424" d="M891.357 147.441l-43.34 40.67-34-72.67z"/><path fill="#222" d="M885.937 53.611l-71.92 61.83-74.66-114.33z"/><path fill="#434343" d="M868.187 455.581l16.83 28.53-17.58 6.33z"/><path fill="#747474" d="M879.187 591.861l4.25 26.5-20.58 13.75z"/><path fill="#373737" d="M863.887 356.791l17.8 53.41h-40.67z"/><path fill="#323232" d="M881.687 410.201l-8 12.83-32.67-12.83z"/><path fill="#626262" d="M862.857 632.111l16.52 41.33-62.02-7z"/><path fill="#777" d="M879.377 714.831v20.95l-20.69 7 20.5-27.95z"/><path fill="#717171" d="M879.377 673.441v41.39h-.19l-20.5 27.95-7.91-18.34z"/><path fill="#656565" d="M879.377 673.441l-28.6 51-9.97 17.78-45.12-54.78z"/><path fill="#747474" d="M879.377 735.781l-6.02 19-14.67-12z"/><path fill="#5E5E5E" d="M879.377 673.441l-83.69 14 21.67-21z"/><path fill="#787878" d="M870.457 574.221l8.73 17.64-32.5-9.42 9-38.08 7.17 14.48z"/><path fill="#646464" d="M879.187 591.861l-16.33 40.25-16.17-49.67z"/><path fill="#242424" d="M873.687 423.031l1.5 17.58h-13.83z"/><path fill="#252525" d="M875.187 440.611l-7 14.97-6.83-14.97z"/><path fill="#202020" d="M873.687 423.031l-12.33 17.58-14.84-12.83z"/><path fill="#282828" d="M873.687 423.031l-27.17 4.75-5.5-17.58z"/><path fill="#5E5E5E" d="M873.357 754.781l-14.67 58-2.66-46.67z"/><path fill="#444" d="M873.357 754.781l-17.33 11.33-20 10.67-8.63-13.69 25.94-4.69z"/><path fill="#575757" d="M873.357 754.781l-20.02 3.62 5.35-15.62z"/><path fill="#212121" d="M861.357 440.611l6.83 14.97-20-1.38z"/><path fill="#343434" d="M868.187 455.581l-.75 34.86-19.25-36.24z"/><path fill="#313131" d="M848.187 454.201l19.25 36.24-56.05-44.9z"/><path fill="#434343" d="M867.437 490.441l-11.75 53.92-33.23-44.54z"/><path fill="#2D2D2D" d="M867.437 490.441l-44.98 9.38-11.07-54.28z"/><path fill="#383838" d="M863.887 356.791l-22.87 53.41-14.83-35.42z"/><path fill="#474747" d="M846.687 582.441l16.17 49.67-48.17 8.33z"/><path fill="#3C3C3C" d="M862.857 632.111l-45.5 34.33-2.67-26z"/><path fill="#1A1A1A" d="M861.357 440.611l-13.17 13.59-8.5-16.26z"/><path fill="#1E1E1E" d="M861.357 440.611l-21.67-2.67 6.83-10.16z"/><path fill="#6F6F6F" d="M850.777 724.441l7.91 18.34-17.88-.56z"/><path fill="#535353" d="M858.687 742.781l-5.35 15.62-12.53-16.18z"/><path fill="#5F5F5F" d="M856.027 766.111l2.66 46.67-24.5-9.67 15.35-26z"/><path fill="#676767" d="M858.687 812.781l-14.67 87.33v-70.67z"/><path fill="#5D5D5D" d="M837.747 812.651l-3.56-9.54 24.5 9.67-14.67 16.66z"/><path fill="#323232" d="M856.027 766.111l-6.49 11-13.51-.33z"/><path fill="#8B8B8B" d="M822.457 499.821l33.23 44.54-85.84-20.35-.01-.02 12.54-77.88z"/><path fill="#7B7B7B" d="M855.687 544.361l-9 38.08h-52.33l-24.51-58.43z"/><path fill="#565656" d="M840.807 742.221l12.53 16.18-25.94 4.69-24.04 4.35z"/><path fill="#1E1E1E" d="M853.187 327.111l-13.6 29.67-4.9 1.33-20.19-8.65z"/><path fill="#5B5B5B" d="M853.187 327.111l-38.69 22.35-2.23-.95-16.1-6.9-17.3-39.85zM849.537 777.111l-15.35 26-5.33-15.17z"/><path fill="#2D2D2D" d="M849.537 777.111l-20.68 10.83 7.17-11.16zM839.687 437.941l8.5 16.26-36.8-8.66 35.13-17.76z"/><path fill="#585858" d="M814.017 115.441l34 72.67h-131.33z"/><path fill="#676767" d="M848.017 188.111l-53.23 112.6-15.92 1.05-30.18-28.98-85.72-84.67h53.72z"/><path fill="#999" d="M846.687 582.441l-32 58-20.33-58z"/><path fill="#2D2D2D" d="M841.017 410.201l5.5 17.58-29.16-2.83z"/><path fill="#252525" d="M846.517 427.781l-35.13 17.76-4.2-20.59h10.17z"/><path fill="#535353" d="M819.637 833.911l24.38-4.47v70.67l-54.16-60.75 5.97-1.09h.01l23.73-4.351zM837.747 812.651l6.27 16.79-22.81-13.58-17.05-10.151z"/><path fill="#414141" d="M789.857 839.361l54.16 60.75-45.17 11.3-36.71 9.18-19.22 4.8-.1-.181z"/><path fill="#676767" d="M844.017 900.111l-23.63 61-15.08-34.79z"/><path fill="#464646" d="M844.017 829.441l-24.38 4.47 1.57-18.05z"/><path fill="#5D5D5D" d="M844.017 900.111l-38.71 26.21-6.46-14.91z"/><path fill="#393939" d="M826.187 374.781l14.83 35.42-31.65-14.74z"/><path fill="#363636" d="M841.017 410.201l-23.66 14.75h-10.17l2.18-29.49z"/><path fill="#626262" d="M795.687 687.441l45.12 54.78-64.78 19.22z"/><path fill="#656565" d="M840.807 742.221l-37.45 25.22-27.33-6z"/><path fill="#555" d="M834.187 803.111l3.56 9.54-33.59-6.941 24.7-17.769z"/><path fill="#3F3F3F" d="M827.397 763.091l8.63 13.69-12.67 1.33z"/><path fill="#171717" d="M836.027 776.781l-7.17 11.16-5.93-9.51.43-.32z"/><path fill="#111" d="M834.687 358.111l-8.5 16.67-23.5 4.16-14.5 2.5 7.98-4v-.01z"/><path fill="#181818" d="M834.687 358.111l-38.52 19.32 16.1-28.92 2.23.95z"/><path fill="#161616" d="M822.927 778.431l5.93 9.51-22.83 2.84z"/><path fill="#2D2D2D" d="M828.857 787.941l-24.7 17.769 1.87-14.929z"/><path fill="#494949" d="M827.397 763.091l-4.04 15.02-20-10.67z"/><path fill="#181818" d="M826.187 374.781l-16.82 20.68-11.82 14.53-.16-.24.55-3.18 4.75-27.63z"/><path fill="#373737" d="M823.357 778.111l-.43.32-16.9 12.35-2.67-23.34z"/><path fill="#2C2C2C" d="M811.387 445.541l11.07 54.28-40.08-53.71 24.81-21.16z"/><path fill="#494949" d="M821.207 815.861l-1.57 18.05-.07.009-18.97-12.219z"/><path fill="#505050" d="M821.207 815.861l-20.61 5.84 2.76-9.59z"/><path fill="#515151" d="M821.207 815.861l-17.85-3.75.8-6.401z"/><path fill="#626262" d="M805.307 926.321l15.08 34.79-30.53-24.33z"/><path fill="#696969" d="M820.387 961.111h-57.37l26.84-24.33z"/><path fill="#414141" d="M819.567 833.92l-23.73 4.351 4.76-16.57z"/><path fill="#2F2F2F" d="M814.687 640.441l2.67 26-51.99-18.231z"/><path fill="#3C3C3C" d="M817.357 666.441l-21.67 21-23.33-8.521-15-5.479z"/><path fill="#2B2B2B" d="M817.357 666.441l-60 7 8.01-25.231z"/><path fill="#616161" d="M794.357 582.441l20.33 58-51.78-6z"/><path fill="#0B0B0B" d="M814.687 640.441l-49.32 7.769-35.35 5.571 32.89-19.34z"/><path fill="#1C1C1C" d="M739.357 1.111l74.66 114.33-157.83-18.33z"/><path fill="#353535" d="M814.017 115.441l-97.33 72.67-60.5-91z"/><path fill="#474747" d="M812.267 348.511l-16.1 28.92v.01l-7.98 4-18.62-51.22 26.6 11.39z"/><path fill="#1B1B1B" d="M797.547 409.991l11.82-14.53-2.18 29.49z"/><path fill="#171717" d="M797.547 409.991l9.64 14.96-11.75-3.84 1.86-10.81z"/><path fill="#0D0D0D" d="M807.187 424.951l-24.81 21.16 13.06-25z"/><path fill="#333" d="M803.357 767.441l2.67 23.34-30-29.34z"/><path fill="#282828" d="M806.027 790.781l-1.87 14.929-.8 6.401-55.48-16.35 21.48-2.98z"/><path fill="#2A2A2A" d="M806.027 790.781l-36.67 2 6.67-31.34z"/><path fill="#5F5F5F" d="M798.847 911.411l6.46 14.91-15.45 10.46z"/><path fill="#4D4D4D" d="M803.357 812.111l-2.76 9.59-4.76 16.57h-.01l-38.81-18.83z"/><path fill="#424242" d="M803.357 812.111l-46.34 7.33-2.83-7.33-6.31-16.35z"/><path fill="#1F1F1F" d="M802.687 378.941l-4.75 27.63-9.98-11.11z"/><path fill="#262626" d="M802.687 378.941l-14.73 16.52.23-14.02z"/><path fill="#626262" d="M798.847 911.411l-8.99 25.37-27.72-16.19z"/><path fill="#282828" d="M797.387 409.751l-.09.55-1.86 10.81-7.75-9.5.27-16.15 9.98 11.11z"/><path fill="#606060" d="M778.867 301.761l17.3 39.85-26.6-11.39z"/><path fill="#363636" d="M757.017 819.441l38.81 18.83-5.97 1.09-40.5 7.42z"/><path fill="#5A5A5A" d="M795.687 687.441l-19.66 74-39.2-29.311-.62-1.229z"/><path fill="#606060" d="M795.687 687.441l-59.48 43.46-.12-.26 23.27-37.82.01-.01z"/><path fill="#3C3C3C" d="M795.687 687.441l-36.32 5.37 12.99-13.891z"/><path fill="#0A0A0A" d="M778.767 414.581l8.92-2.97 7.75 9.5-9.5 2-8-8.25z"/><path fill="#020202" d="M795.437 421.111l-13.06 25 3.56-23z"/><path fill="#939393" d="M769.847 524.011l24.51 58.43-50.8 2 26.28-60.43z"/><path fill="#828282" d="M794.357 582.441l-31.45 52-19.35-50z"/><path fill="#464646" d="M789.857 839.361l-47.04 85.849-.09-.169 5.3-62.541 1.33-15.719z"/><path fill="#6F6F6F" d="M789.857 936.781l-26.84 24.33-.88-40.52z"/><path fill="#606060" d="M769.567 330.221l18.62 51.22h-48.17l8.67-108.66z"/><path fill="#171717" d="M788.187 381.441l-.23 14.02-.27 16.15-8.92 2.97z"/><path fill="#181818" d="M788.187 381.441l-9.42 33.14-.83.28-2-33.42z"/><path fill="#323232" d="M777.937 414.861l8 8.25-3.56 23-14.19-31.25z"/><path fill="#555" d="M768.187 414.861l14.19 31.25-17.09 8.69z"/><path fill="#767676" d="M782.377 446.111l-12.54 77.88-24.72-58.94 20.17-10.25z"/><path fill="#696969" d="M778.867 301.761l-9.3 28.46-20.88-57.44z"/><path fill="#161616" d="M775.937 381.441l2 33.42-14.48-14.33z"/><path fill="#040404" d="M777.937 414.861h-9.75l-4.73-14.33z"/><path fill="#343434" d="M776.027 761.441l-6.67 31.34-16-27.34z"/><path fill="#6C6C6C" d="M776.027 761.441l-22.67 4-16.53-33.311z"/><path fill="#181818" d="M775.937 381.441l-12.48 19.09-14.77 22.58-8.67-41.67h4z"/><path fill="#595959" d="M772.357 678.92l-12.99 13.891-.01.01h-.01l-13.4-11.651z"/><path fill="#323232" d="M772.357 678.92l-26.41 2.25 11.41-7.729z"/><path fill="#D0D0D0" d="M745.117 465.051l24.72 58.94v.02l-59.65 28.6 17.83-37.83 15.54-44z"/><path fill="#777" d="M769.837 524.011l-26.28 60.43-33.37-31.83z"/><path fill="#2B2B2B" d="M753.357 765.441l16 27.34-22.58-13.611z"/><path fill="#262626" d="M769.357 792.781l-21.48 2.98-9.69 1.34 8.59-17.931z"/><path fill="#010101" d="M763.457 400.531l4.73 14.33-19.5 8.25z"/><path fill="#313131" d="M768.187 414.861l-2.9 39.94-16.6-31.69z"/><path fill="#2E2E2E" d="M765.367 648.21l-8.01 25.231-27.34-19.66z"/><path fill="#2C2C2C" d="M748.687 423.111l16.6 31.69-19.91-24.35z"/><path fill="#3F3F3F" d="M745.377 430.451l19.91 24.35-16.6-2.86z"/><path fill="#484848" d="M765.287 454.801l-20.17 10.25 3.57-13.11z"/><path fill="#7D7D7D" d="M762.137 920.591l.88 40.52-20.1-35.72z"/><path fill="#686868" d="M742.917 925.391l20.1 35.72h-82.87l24.7-30.611.79.091 1.18-2.53 22.58-27.98 9.76 18.62 3.53 6.75z"/><path fill="#8F8F8F" d="M743.557 584.441l19.35 50-86.89-8z"/><path fill="#727272" d="M762.907 634.441l-32.89 19.34-54-27.34z"/><path fill="#999" d="M759.357 692.821l-23.27 37.82-15.9-32.03 39.16-5.79z"/><path fill="#868686" d="M745.947 681.17l13.4 11.651-39.16 5.79z"/><path fill="#6F6F6F" d="M757.357 673.441l-11.41 7.729-25.76 17.441v-29.33z"/><path fill="#292929" d="M757.357 673.441l-37.17-4.16 9.83-15.5z"/><path fill="#434343" d="M754.187 812.111l2.83 7.33-21.33-5.61z"/><path fill="#656565" d="M757.017 819.441l-7.66 27.34-13.67-32.95z"/><path fill="#141414" d="M747.877 795.761l6.31 16.35-52.16-10 36.16-5.01z"/><path fill="#212121" d="M754.187 812.111l-18.5 1.72-30.81 2.86-2.85-14.58z"/><path fill="#8C8C8C" d="M736.827 732.13l16.53 33.311-21.27 8.67-36.86 15.01 24.96-90.51 15.9 32.03-.4.64z"/><path fill="#373737" d="M753.357 765.441l-6.58 13.729-8.59 17.931-6.1-22.99z"/><path fill="#848484" d="M735.687 813.831l13.67 32.95-15.18-3.16-72.25-15.04-26.28-5.47 36.07-3.35 2.81-.261 2.84-.259 11.07-1.031 16.43-1.519h.01z"/><path fill="#4F4F4F" d="M749.357 846.781l-1.33 15.719h-.01l-13.84-18.879z"/><path fill="#6B6B6B" d="M748.687 272.781l-8.67 108.66-41.33-19.33-9.02-28.31-26.98-84.69z"/><path fill="#121212" d="M740.017 381.441l8.67 41.67-23.83-25.82-8.17-8.85z"/><path fill="#101010" d="M724.857 397.291l23.83 25.82-3.31 7.34-6.54 14.5-.42.93-2.73 6.06-5.9-29.78z"/><path fill="#171717" d="M745.377 430.451l3.31 21.49-10.27-6.06.42-.93z"/><path fill="#181818" d="M748.687 451.941l-3.57 13.11-1.56 5.73-7.87-18.84z"/><path fill="#6C6C6C" d="M662.967 188.111l85.72 84.67-86-23.67-16.7-61-6.3-23z"/><path fill="#111" d="M748.687 451.941h-13l2.73-6.06z"/><path fill="#4E4E4E" d="M748.027 862.5l-5.3 62.541-3.57-6.34-9.76-18.62-5.04-9.64 23.66-27.941z"/><path fill="#4E4E4E" d="M734.177 843.621l13.84 18.879-23.66 27.941z"/><path fill="#222" d="M735.687 451.941l7.87 18.84-17.7 14.33z"/><path fill="#171717" d="M743.557 470.781l-15.54 44-2.16-29.67z"/><path fill="#C3C3C3" d="M743.557 584.441l-67.54 42 2.74-19.37 3.01-21.29v-.01h.01z"/><path fill="#CDCDCD" d="M743.557 584.441l-61.78 1.33 12.41-12.96 16-20.2z"/><path fill="#171717" d="M740.017 381.441l-23.33 7-18-26.33z"/><path fill="#1B1B1B" d="M739.357 1.111l-83.17 96-101.5-43.5z"/><path fill="#232323" d="M739.357 1.111l-184.67 52.5-64.19-52.5z"/><path fill="#2D2D2D" d="M732.087 774.111l6.1 22.99-36.16 5.01z"/><path fill="#2C2C2C" d="M728.997 450.151l-6.64-4.04 7.43-23.95 5.9 29.78-9.83 33.17z"/><path fill="#8D8D8D" d="M734.177 843.621l-9.82 46.82-62.43-61-.29-.12.29-.74z"/><path fill="#3E3E3E" d="M732.087 774.111l-30.06 28-6.8-12.981v-.009z"/><path fill="#4D4D4D" d="M730.017 653.781l-9.83 15.5-47.67-18.67z"/><path fill="#8B8B8B" d="M730.017 653.781l-57.5-3.17 3.5-24.17z"/><path fill="#5C5C5C" d="M729.787 422.161l-7.43 23.95-18.91-41.76z"/><path fill="#252525" d="M724.857 397.291l4.93 24.87-26.34-17.81z"/><path fill="#5A5A5A" d="M724.357 890.441l5.04 9.64-22.58 27.98z"/><path fill="#818181" d="M728.997 450.151l-3.14 34.96-21-21.17z"/><path fill="#4E4E4E" d="M728.997 450.151l-24.14 13.79 17.5-17.83z"/><path fill="#2A2A2A" d="M725.857 485.111l2.16 29.67-16 6.16z"/><path fill="#242424" d="M728.017 514.781l-17.83 37.83 1.83-31.67z"/><path fill="#828282" d="M704.857 463.941l21 21.17-13.84 35.83z"/><path fill="#292929" d="M724.857 397.291l-21.41 7.06h-.01l13.25-15.91z"/><path fill="#9D9D9D" d="M724.357 890.441l-17.54 37.62-1.55 1.92-50.54-83.2z"/><path fill="#D0D0D0" d="M724.357 890.441l-69.63-43.66 6.91-17.46.29.12z"/><path fill="#515151" d="M703.447 404.351l18.91 41.76-51.34-15.66 18.5-56.84 13.92 30.74z"/><path fill="#5D5D5D" d="M722.357 446.111l-17.5 17.83-33.84-33.49z"/><path fill="#555" d="M720.187 669.281v29.33l-103.76-14.67z"/><path fill="#9B9B9B" d="M720.187 698.611l-24.96 90.51v.009h-.01l-60.2-16.349z"/><path fill="#3E3E3E" d="M720.187 669.281l-103.76 14.66 56.09-33.33z"/><path fill="#5F5F5F" d="M720.187 698.611l-85.17 74.17-18.59-88.84z"/><path fill="#4B4B4B" d="M656.187 97.111l60.5 91-77-23z"/><path fill="#040404" d="M698.687 362.111l18 26.33-27.17-14.83z"/><path fill="#323232" d="M716.687 388.441l-13.25 15.91-13.92-30.74z"/><path fill="#303030" d="M716.687 188.111h-53.72l-23.28-23z"/><path fill="#999" d="M704.857 463.941l7.16 57-21.33-14.33z"/><path fill="#101010" d="M712.017 520.941l-1.83 31.67-14-13.09z"/><path fill="#767676" d="M712.017 520.941l-15.83 18.58-5.5-32.91z"/><path fill="#292929" d="M710.187 552.611l-16 20.2 2-33.29z"/><path fill="#A7A7A7" d="M654.727 846.781l50.54 83.2-.42.519-152.49-17.059 52.62-33.33z"/><path fill="#161616" d="M702.027 802.111l2.85 14.58h-.01l-21.86-8.6v-.01z"/><path fill="#2B2B2B" d="M683.007 808.091l21.86 8.6-16.43 1.519z"/><path fill="#656565" d="M704.857 463.941l-14.17 42.67-44.7-30.78z"/><path fill="#505050" d="M704.857 463.941l-58.87 11.89 25.03-45.38z"/><path fill="#A7A7A7" d="M704.847 930.5l-24.7 30.611-127.79-47.67z"/><path fill="#424242" d="M695.227 789.13l6.8 12.981-13.59-5 6.07-7.691.71-.29z"/><path fill="#303030" d="M702.027 802.111l-19.02 5.97-4.32 1.36 9.75-12.33z"/><path fill="#393939" d="M689.667 333.801l9.02 28.31-51-7z"/><path fill="#181818" d="M698.687 362.111l-9.17 11.5-41.83-18.5z"/><path fill="#676767" d="M690.687 506.611l5.5 32.91-28.83-7.41z"/><path fill="#191919" d="M696.187 539.521l-2 33.29-10.81-12.641z"/><path fill="#858585" d="M696.187 539.521l-12.81 20.649-16.56-10.969.54-.821z"/><path fill="#A1A1A1" d="M696.187 539.521l-28.83 8.859v-16.269z"/><path fill="#9F9F9F" d="M695.217 789.13l-.71.29-31.15 12.691-18.12 5.09-10.22-34.42z"/><path fill="#363636" d="M694.507 789.42l-6.07 7.691-9.75 12.33-15.33-7.33z"/><path fill="#444" d="M683.377 560.17l10.81 12.641-41.58 13.109z"/><path fill="#222" d="M694.187 572.811l-12.41 12.96h-.01v.01l-7.58 7.91-36.52 17.25z"/><path fill="#1E1E1E" d="M694.187 572.811l-56.52 38.13 14.94-25.021z"/><path fill="#636363" d="M690.687 506.611l-23.33 25.5-21.37-56.28z"/><path fill="#A9A9A9" d="M662.687 249.111l26.98 84.69-86.98-6.69-94.33-9.67 77.72-73.03 59.91-56.3z"/><path fill="#2F2F2F" d="M689.667 333.801l-41.98 21.31-45-28z"/><path fill="#383838" d="M689.517 373.611l-18.5 56.84-37.83-63.84z"/><path fill="#070707" d="M689.517 373.611l-56.33-7 14.5-11.5z"/><path fill="#1D1D1D" d="M683.007 808.091l5.43 10.119-52.4-6.099 42.65-2.67 4.32-1.36z"/><path fill="#2A2A2A" d="M688.437 818.21l-11.07 1.031-2.84.259-2.81.261-36.07 3.35.38-11h.01z"/><path fill="#B0B0B0" d="M683.377 560.17l-30.77 25.75-.67-31.25 1.96.25 3.02.54z"/><path fill="#B2B2B2" d="M683.377 560.17l-26.46-4.71.02-.139 6.68-8.25 3.2 2.13z"/><path fill="#323232" d="M681.767 585.781l-3.01 21.29-4.57-13.38z"/><path fill="#ADADAD" d="M680.147 961.111h-231.38l103.59-47.67z"/><path fill="#545454" d="M674.187 593.691l4.57 13.38-17.07 6.21z"/><path fill="#707070" d="M678.757 607.071l-2.74 19.37-3.5 24.17-10.83-37.33z"/><path fill="#2C2C2C" d="M678.687 809.441l-42.65 2.67h-.01l-10.67.67 19.88-5.58 18.12-5.09z"/><path fill="#454545" d="M674.187 593.691l-12.5 19.59-24.02-2.34z"/><path fill="#B9B9B9" d="M661.687 613.281l10.83 37.33-34.85-39.67z"/><path fill="#393939" d="M637.667 610.941l34.85 39.67-56.09 33.33z"/><path fill="#323232" d="M633.187 366.611l37.83 63.84-36.33 16.99-24.05-24.33z"/><path fill="#2D2D2D" d="M671.017 430.451l-25.03 45.38-11.3-28.39z"/><path fill="#696969" d="M663.617 547.071l-24.89-16.49-.01-.01-1.04-.68 29.68 2.22v16.269l-.54.821z"/><path fill="#5B5B5B" d="M645.987 475.831l21.37 56.28-29.68-2.22-.01-.011v.011l-12.75-.96-55.4-4.15 24.79-15.87z"/><path fill="#787878" d="M663.617 547.071l-6.68 8.25-18.21-24.74z"/><path fill="#5B5B5B" d="M661.927 828.581l-.29.74-6.91 17.46-62.13-10.64z"/><path fill="#373737" d="M661.927 828.581l-69.33 7.56-6.57-23.36 49.62 10.33z"/><path fill="#6B6B6B" d="M638.727 530.581l18.21 24.74-.02.139-3.02-.54-1.96-.25-21.68-2.819 7.41-21.96h.01l1.04.68z"/><path fill="#626262" d="M656.187 97.111l-16.5 68-28.5-38.5z"/><path fill="#565656" d="M656.187 97.111l-45 29.5-88.24 7.22 31.74-80.22z"/><path fill="#5D5D5D" d="M654.727 846.781l-49.75 33.33-12.38-43.97z"/><path fill="#969696" d="M651.937 554.67l.67 31.25-37.44-23.799z"/><path fill="#515151" d="M652.607 585.92l-14.94 25.021-23.73-6.83z"/><path fill="#AEAEAE" d="M652.607 585.92l-38.67 18.191.87-29.56.02-.75.34-11.68z"/><path fill="#9B9B9B" d="M615.167 562.121l-.34 11.68-18.14-26.31 33.57 4.36 21.68 2.819z"/><path fill="#171717" d="M647.687 355.111l-14.5 11.5-52.5-9.5z"/><path fill="#292929" d="M647.687 355.111l-67 2 22-30z"/><path fill="#2B2B2B" d="M634.687 447.441l11.3 28.39-30.47-14.55z"/><path fill="#848484" d="M639.687 165.111l6.3 23-59.91 56.3-20.39-70.3z"/><path fill="#363636" d="M645.987 475.831l-51.68 33.08-24.79-33.3-.06-.66 7.53-.63 46.95 1.03z"/><path fill="#262626" d="M645.987 475.831l-22.05-.48-8.42-14.07z"/><path fill="#404040" d="M635.017 772.781l10.22 34.42-19.88 5.58h-39.33z"/><path fill="#777" d="M611.187 126.611l28.5 38.5-74 9z"/><path fill="#434343" d="M637.667 610.941l-21.24 73-21.24-61.5z"/><path fill="#585858" d="M637.667 529.891l-7.41 21.96-5.34-22.92z"/><path fill="#070707" d="M637.667 610.941l-42.48 11.5 18.75-18.33z"/><path fill="#101010" d="M636.027 812.111l-.38 11-49.62-10.33h39.33z"/><path fill="#515151" d="M616.427 683.941l18.59 88.84-92.33 34.33z"/><path fill="#3E3E3E" d="M635.017 772.781l-48.99 40-43.34-5.67z"/><path fill="#2A2A2A" d="M610.637 423.111l24.05 24.33-19.17 13.84z"/><path fill="#393939" d="M633.187 366.611l-22.55 56.5-10.19-20.83z"/><path fill="#3E3E3E" d="M633.187 366.611l-32.74 35.67-19.13 20.83-25.88-48.5z"/><path fill="#262626" d="M633.187 366.611l-77.75 8 25.25-17.5z"/><path fill="#636363" d="M624.917 528.931l5.34 22.92-33.57-4.36z"/><path fill="#4E4E4E" d="M624.917 528.931l-28.23 18.56-1.97 1.3-2.01 1.32-23.19-25.33z"/><path fill="#292929" d="M615.517 461.281l8.42 14.07-46.95-1.03.45-.04 13.31-3.73z"/><path fill="#4C4C4C" d="M595.187 622.441l21.24 61.5-116.04 74.62z"/><path fill="#454545" d="M616.427 683.941l-73.74 123.17-42.3-48.55z"/><path fill="#1C1C1C" d="M610.637 423.111l4.88 38.17-22.81-17.89z"/><path fill="#323232" d="M615.517 461.281l-24.77 9.27 5.94-13.11-3.98-14.05z"/><path fill="#8F8F8F" d="M614.827 573.801l-.02.75-.87 29.56-48.22-17.47z"/><path fill="#A3A3A3" d="M596.687 547.491l18.14 26.31-49.11 12.84-2.84-1.03-15.19-5.5 17.91-11.93 29.12-19.39z"/><path fill="#373737" d="M613.937 604.111l-18.75 18.33-31.42-8.941z"/><path fill="#969696" d="M565.717 586.641l48.22 17.47-50.17 9.389-.91-27.839.02-.05z"/><path fill="#707070" d="M611.187 126.611l-45.5 47.5-42.74-40.28z"/><path fill="#373737" d="M600.447 402.281l10.19 20.83h-29.32z"/><path fill="#313131" d="M610.637 423.111l-17.93 20.28-11.39-20.28zM592.597 836.141l12.38 43.97-33.62-58 14.22-9.05.45-.28z"/><path fill="#454545" d="M571.357 822.111l33.62 58-75.62-23.7z"/><path fill="#535353" d="M604.977 880.111l-52.62 33.33-23-57.03z"/><path fill="#3F3F3F" d="M602.687 327.111l-22 30-72.33-39.67z"/><path fill="#181818" d="M592.707 443.391l3.98 14.05-30.74.17z"/><path fill="#202020" d="M596.687 457.441l-5.94 13.11-24.8-12.94z"/><path fill="#B3B3B3" d="M595.187 622.441l-94.8 136.12-51.62-100.7z"/><path fill="#AAA" d="M595.187 622.441l-146.42 35.42 88.04-33.63z"/><path fill="#0D0D0D" d="M595.187 622.441l-58.38 1.79 26.96-10.731z"/><path fill="#AFAFAF" d="M594.717 548.791l-29.12 19.39 3.92-20.03 23.19 1.96z"/><path fill="#414141" d="M569.517 475.611l24.79 33.3-126.95 5.2 48.42-18.25z"/><path fill="#404040" d="M594.307 508.911l-24.79 15.87-56.03-5.85-46.13-4.82z"/><path fill="#313131" d="M581.317 423.111l11.39 20.28-33.97 2.41h-.01l-.64-.16z"/><path fill="#414141" d="M569.517 524.781l23.19 25.33-23.19-1.96h-.01l-95.32-8.04z"/><path fill="#212121" d="M592.707 443.391l-26.76 14.22-8.09-11.75.87-.06h.01z"/><path fill="#252525" d="M590.747 470.551l-13.31 3.73-11.49-16.67z"/><path fill="#D2D2D2" d="M565.687 174.111l20.39 70.3-77.72 73.03-55 37.67 1.52-110.7h126.44l-52.98-13.97-42.45-34.37z"/><path fill="#414141" d="M586.027 812.781l-.45.28-14.22 9.05-28.67-15z"/><path fill="#444" d="M555.437 374.611l25.88 48.5-18.35 4.85z"/><path fill="#BEBEBE" d="M581.317 244.411h-126.44l35.62-23.95 37.84 9.98z"/><path fill="#3A3A3A" d="M581.317 423.111l-23.23 22.53-31.65-8.03 36.53-9.65z"/><path fill="#131313" d="M580.687 357.111l-25.25 17.5-36.41-6.17z"/><path fill="#3B3B3B" d="M580.687 357.111l-61.66 11.33-10.67-51z"/><path fill="#2D2D2D" d="M576.987 474.321l-7.53.63-7.85.66 4.34-18 11.49 16.67z"/><path fill="#3D3D3D" d="M571.357 822.111l-42 34.3 13.33-49.3z"/><path fill="#3B3B3B" d="M569.457 474.951l.06.66-53.74 20.25-40.44-7.691 4.85-15.759 63.89 3.42 17.53-.22z"/><path fill="#ADADAD" d="M569.517 548.151l-3.92 20.03-75.86 1.529 79.77-21.559z"/><path fill="#404040" d="M569.517 524.781l-95.33 15.33 39.25-20.67.05-.51z"/><path fill="#5B5B5B" d="M569.507 548.151l-79.77 21.559-15.55-29.599z"/><path fill="#282828" d="M557.857 445.861l8.09 11.75-30.87-6.11z"/><path fill="#1B1B1B" d="M565.947 457.611l-4.34 18-17.53.22z"/><path fill="#1D1D1D" d="M565.947 457.611l-21.87 18.22-7.97-10.78z"/><path fill="#171717" d="M565.947 457.611l-29.84 7.44-1.03-13.55z"/><path fill="#7E7E7E" d="M565.687 174.111l-79.8 21.96-8.86-46.86z"/><path fill="#919191" d="M565.687 174.111l-88.66-24.9-27.58-7.75-51.09-14.35 28.33-84 96.26 90.72z"/><path fill="#A5A5A5" d="M565.597 568.181l-17.91 11.93-7.82 4.33-32.47 17.96-.38.21-17.28-32.901z"/><path fill="#989898" d="M562.857 585.661l.91 27.839-23.9-29.059 7.82-4.33 15.19 5.5z"/><path fill="#ACACAC" d="M539.867 584.441l23.9 29.059-29.41-.549z"/><path fill="#303030" d="M563.767 613.5l-26.96 10.731-2.45-11.28z"/><path fill="#565656" d="M555.437 374.611l7.53 53.35-53.52-6z"/><path fill="#3A3A3A" d="M562.967 427.961l-36.53 9.65-16.99-15.65z"/><path fill="#2C2C2C" d="M526.437 437.611l31.65 8.03-.23.22-22.78 5.64z"/><path fill="#5C5C5C" d="M555.437 374.611l-45.99 47.35h-.01l-10.95-25.6z"/><path fill="#2B2B2B" d="M555.437 374.611l-56.95 21.75 20.54-27.92z"/><path fill="#515151" d="M554.687 53.611l-31.74 80.22-96.26-90.72z"/><path fill="#494949" d="M554.687 53.611l-128-10.5 63.81-42z"/><path fill="#B0B0B0" d="M529.357 856.411l23 57.03-229.59-66.66 177.62-88.22z"/><path fill="#A5A5A5" d="M552.357 913.441l-103.59 47.67-44.22-38.51-48.81-45.15-32.97-30.67z"/><path fill="#282828" d="M536.107 465.051l7.97 10.78-63.89-3.42 54.89-20.91z"/><path fill="#8A8A8A" d="M500.387 758.561l42.3 48.55-13.33 49.3z"/><path fill="#B8B8B8" d="M539.867 584.441l-5.51 28.51-26.84-10.34-.12-.21z"/><path fill="#1B1B1B" d="M534.357 612.951l2.45 11.28-47.07-20.12z"/><path fill="#C6C6C6" d="M536.807 624.231l-88.04 33.63 40.97-53.75z"/><path fill="#252525" d="M526.437 437.611l8.64 13.89-67.72 8.61 50.22-19.13zM535.077 451.501l-54.89 20.91-12.83-12.3zM534.357 612.951l-44.62-8.84 17.28-1.5.38-.21.12.21z"/><path fill="#BABABA" d="M528.337 230.441l-37.84-9.98-3.97-21.02-.64-3.37z"/><path fill="#3D3D3D" d="M526.437 437.611l-8.86 3.37-8.14-19.02h.01z"/><path fill="#606060" d="M508.357 317.441l10.67 51-53.71 13.66h-.01v.01l-41.95 10.67h-25l55-37.67z"/><path fill="#151515" d="M519.027 368.441l-20.54 27.92-33.17-14.26z"/><path fill="gray" d="M509.437 421.961l8.14 19.02-43.39-14.62 24.3-30z"/><path fill="#595959" d="M517.577 440.981l-50.22 19.13 6.83-33.75z"/><path fill="#AFAFAF" d="M515.777 495.861l-48.42 18.25 7.98-25.941z"/><path fill="#6D6D6D" d="M513.487 518.931l-.05.51-39.25 20.67-6.83-26z"/><path fill="#979797" d="M489.737 569.71l17.28 32.901-19.66-20z"/><path fill="#292929" d="M487.357 582.611l19.66 20-17.28 1.5-24.43-45.18z"/><path fill="#CDCDCD" d="M448.767 657.861l51.62 100.7-209.57-68.641z"/><path fill="#DCDCDC" d="M500.387 758.561l-177.62 88.22-10.47-56-21.48-100.861z"/><path fill="#2F2F2F" d="M498.487 396.361l-24.3 30-8.88-44.25.01-.01z"/><path fill="#9B9B9B" d="M486.527 199.441l3.97 21.02-41.14-78.69.09-.31 27.58 7.75 8.86 46.86z"/><path fill="#C3C3C3" d="M449.357 141.771l41.14 78.69-116.48-73.68z"/><path fill="#6D6D6D" d="M490.497 1.111l-63.81 42-86-42z"/><path fill="#D7D7D7" d="M490.497 220.461l-35.62 23.95-94.87 63.8-19.32 12.99 33.33-174.42z"/><path fill="#B1B1B1" d="M465.307 558.931l24.43 45.18-40.97 53.75z"/><path fill="#7C7C7C" d="M474.187 540.111l15.55 29.599-2.38 12.901z"/><path fill="#242424" d="M474.187 540.111l13.17 42.5-22.05-23.68 2.05-44.82z"/><path fill="#1A1A1A" d="M480.187 472.411l-4.85 15.759-9.38-2.629-.65-13.13z"/><path fill="#2E2E2E" d="M480.187 472.411h-14.88l2.05-12.3z"/><path fill="#646464" d="M475.337 488.17l-7.98 25.941-1.4-28.57z"/><path fill="#2D2D2D" d="M465.307 382.111l8.88 44.25-50.83-33.58z"/><path fill="#040404" d="M474.187 426.361l-6.83 33.75-25.83-19.37-1.96-1.47-12.63-9.48z"/><path fill="#080808" d="M474.187 426.361l-47.25 3.43-3.58-37.01z"/><path fill="#0C0C0C" d="M467.357 460.111l-2.05 12.3-9.64 10.94z"/><path fill="#3A3A3A" d="M467.357 460.111l-11.69 23.24-6.9 13.7-4.83-30.33-4.37-27.45 1.96 1.47z"/><path fill="#080808" d="M465.957 485.541l1.4 28.57-11.69-30.76 9.64-10.94z"/><path fill="#242424" d="M455.667 483.351l11.69 30.76-18.59-17.06z"/><path fill="#1B1B1B" d="M467.357 514.111l-2.05 44.82-16.54-61.88z"/><path fill="#A5A5A5" d="M448.767 497.051l16.54 61.88-81.41-73.551.01-.009z"/><path fill="#BBB" d="M465.307 558.931l-16.54 98.93-64.88-172.47.01-.011z"/><path fill="#E0E0E0" d="M360.007 308.211l94.87-63.8-1.52 110.7z"/><path fill="#E8E8E8" d="M453.357 355.111l-55 37.67-40.15-49.84-2.47-3.06z"/><path fill="#F2F2F2" d="M453.357 355.111l-97.62-15.23 4.27-31.67z"/><path fill="#666" d="M449.447 141.461l-.09.31-75.34 5.01 24.34-19.67z"/><path fill="#3B3B3B" d="M443.937 466.721l4.83 30.33-64.86-11.68.01-.02z"/><path fill="#DCDCDC" d="M383.887 485.391l64.88 172.47-190.49-10.25z"/><path fill="#D7D7D7" d="M448.767 657.861l-157.95 32.059-32.54-42.309z"/><path fill="#6C6C6C" d="M448.767 961.111h-135.94l9.94-114.33 32.97 30.67 48.81 45.15z"/><path fill="#3C3C3C" d="M439.567 439.271l4.37 27.45-27.53-23.33z"/><path fill="#474747" d="M443.937 466.721l-60.02 18.63 32.49-41.96z"/><path fill="#3F3F3F" d="M439.567 439.271l-23.16 4.12 10.53-13.6z"/><path fill="#303030" d="M423.357 392.781l3.58 37.01-28.58-37.01z"/><path fill="#282828" d="M398.357 392.781l28.58 37.01-75.92 4.69z"/><path fill="#D0D0D0" d="M416.407 443.391l-32.49 41.96-.04.01.01.03-125.61 162.22 92.74-213.13 75.92-4.69z"/><path fill="#626262" d="M426.687 43.111l-28.33 84-103.01-49.29z"/><path fill="#303030" d="M426.687 43.111l-131.34 34.71 45.34-76.71z"/><path fill="#F2F2F2" d="M358.207 342.941l40.15 49.84-151.17 19.52 93.5-91.1 15.05 18.68z"/><path fill="#848484" d="M398.357 127.111l-24.34 19.67-239-145.67 98.59 47.17 61.74 29.54z"/><path fill="#4E4E4E" d="M398.357 392.781l-47.34 41.7h-103.83z"/><path fill="#3B3B3B" d="M398.357 392.781l-151.17 41.7v-22.18z"/><path fill="#404040" d="M374.017 146.781l-33.33 174.42-126-140.08z"/><path fill="#303030" d="M374.017 146.781l-159.33 34.34-79.67-180.01z"/><path fill="#CACACA" d="M360.007 308.211l-4.27 31.67-15.05-18.68z"/><path fill="#E7E7E7" d="M351.017 434.481l-92.74 213.13-10.57-107.22z"/><path fill="#F0F0F0" d="M351.017 434.481l-103.31 105.91-.52-105.91z"/><path fill="#4F4F4F" d="M340.687 1.111l-45.34 76.71-61.74-29.54z"/><path fill="#6E6E6E" d="M214.687 181.121l126 140.08-181.79 32.98z"/><path fill="#404040" d="M340.687 1.111l-107.08 47.17-98.59-47.17z"/><path fill="#6C6C6C" d="M340.687 321.201l-93.5 91.1-88.29-58.12z"/><path fill="#929292" d="M312.297 790.781l10.47 56-87.21-42.38-.23-.64 55.49-113.841z"/><path fill="#717171" d="M322.767 846.781l-9.94 114.33-32.72-33.231z"/><path fill="#737373" d="M322.767 846.781l-42.66 81.099-44.55-123.479z"/><path fill="#C1C1C1" d="M280.107 927.88l32.72 33.231h-64.52z"/><path fill="#929292" d="M258.277 647.611l32.54 42.309-84.13 34.471z"/><path fill="#797979" d="M290.817 689.92l-55.49 113.841-28.64-79.37z"/><path fill="#E0E0E0" d="M235.557 804.401l44.55 123.479-80.17-47.769 35.18-75.92z"/><path fill="#D8D8D8" d="M280.107 927.88l-31.8 33.231-48.37-81z"/><path fill="#949494" d="M247.707 540.391l10.57 107.22-72.09-111z"/><path fill="#616161" d="M186.187 536.611l72.09 111-51.59 76.78-9.21-84.37z"/><path fill="#EDEDED" d="M199.937 880.111l48.37 81H98.937z"/><path fill="#8A8A8A" d="M247.187 434.481l.52 105.91-61.52-3.78v-.01z"/><path fill="#1E1E1E" d="M247.187 412.301v22.18l-84.5-18.7z"/><path fill="#8B8B8B" d="M247.187 434.481l-61 102.12-28.17-102.12z"/><path fill="#5F5F5F" d="M247.187 412.301l-84.5 3.48-3.79-61.59v-.01z"/><path fill="#393939" d="M247.187 434.481h-89.17l4.67-18.7z"/><path fill="#DCDCDC" d="M206.687 724.391l28.64 79.37-.21.43-53.43-56.08z"/><path fill="#BBB" d="M181.687 748.111l53.43 56.08-35.18 75.92z"/><path fill="#2E2E2E" d="M135.017 1.111l79.67 180.01-166-27.68z"/><path fill="#444" d="M214.687 181.121l-55.79 173.06v.01l-21.68 67.25-81.86-138.66z"/><path fill="#4D4D4D" d="M214.687 181.121l-159.33 101.66-6.67-129.34z"/><path fill="#D2D2D2" d="M197.477 640.021l9.21 84.37-26.85-73.78z"/><path fill="#E7E7E7" d="M179.837 650.611l26.85 73.78-25 23.72z"/><path fill="#4B4B4B" d="M181.687 748.111l18.25 132-173.25 81z"/><path fill="#666" d="M199.937 880.111l-101 81h-72.25z"/><path fill="#F6F6F6" d="M197.477 640.021l-27.79-68.41 16.5-35z"/><path fill="#E8E8E8" d="M169.687 571.611l27.79 68.41-35.29-26.41z"/><path fill="#D8D8D8" d="M197.477 640.021l-17.64 10.59-17.65-37z"/><path fill="#C3C3C3" d="M186.187 536.601v.01l-64.5-47.99-27.5-20.46 35.5-18.55 7.53 11.59z"/><path fill="#AAA" d="M186.187 536.611l-16.5 35-34.28-59.26-13.72-23.73z"/><path fill="#717171" d="M158.017 434.481l28.17 102.12-42.83-97.33z"/><path fill="#878787" d="M186.187 536.601l-48.97-75.4 6.14-21.93z"/><path fill="#CACACA" d="M179.837 650.611l1.85 97.5-36-4z"/><path fill="#5F5F5F" d="M181.687 748.111l-155 213-26-233 145 16z"/><path fill="#7F7F7F" d="M162.187 613.611l17.65 37-39.65-24.5z"/><path fill="#DBDBDB" d="M179.837 650.611l-34.15 93.5-5.5-118z"/><path fill="#E8E8E8" d="M135.407 512.351l34.28 59.26-72-43.62z"/><path fill="#848484" d="M169.687 571.611l-7.5 42-22 12.5-42.48 24.5z"/><path fill="#595959" d="M169.687 571.611l-71.98 79-.02-122.62z"/><path fill="#5E5E5E" d="M158.897 354.191l3.79 61.59-25.47 5.66z"/><path fill="#2E2E2E" d="M162.687 415.781l-4.67 18.7-20.8-13.04z"/><path fill="#3F3F3F" d="M158.017 434.481l-14.66 4.79-6.14-17.83z"/><path fill="#E0E0E0" d="M140.187 626.111l5.5 118-33-68.361-14.98-25.139z"/><path fill="#DBDBDB" d="M112.687 675.75l33 68.361-56-51.5z"/><path fill="#3C3C3C" d="M145.687 744.111l-145-16 89-35.5z"/><path fill="#2B2B2B" d="M137.217 421.441l6.14 17.83-13.67 10.34z"/><path fill="#646464" d="M143.357 439.271l-6.14 21.93-7.53-11.59z"/><path fill="#898989" d="M55.357 282.781l81.86 138.66-58.78 4.67z"/><path fill="#6F6F6F" d="M137.217 421.441l-7.53 28.17-51.25-23.5z"/><path fill="#727272" d="M121.687 488.621l13.72 23.73-37.72 15.64z"/><path fill="#535353" d="M135.017 1.111l-86.33 152.33 6.67 129.34L.687 1.111z"/><path fill="#D5D5D5" d="M129.687 449.611l-35.5 18.55-15.75-42.05z"/><path fill="#E4E4E4" d="M121.687 488.621l-24 39.37-22.62-18z"/><path fill="#C6C6C6" d="M121.687 488.621l-46.62 21.37 3.37-28.88z"/><path fill="#C9C9C9" d="M121.687 488.621l-43.25-7.51 15.75-12.95z"/><path fill="#B4B4B4" d="M97.707 650.611l14.98 25.139-49.12-30.809-6.38-62.33 19.62 32.93z"/><path fill="#C6C6C6" d="M112.687 675.75l-23 16.861-26.12-47.67z"/><path fill="#DCDCDC" d="M97.687 527.991l.02 122.62-20.9-35.07z"/><path fill="#E2E2E2" d="M97.687 527.991l-20.88 87.55-1.74-105.55z"/><path fill="#E7E7E7" d="M78.437 426.111l15.75 42.05-31.5-5.85z"/><path fill="#3F3F3F" d="M94.187 468.161l-15.75 12.95-15.75-18.8z"/><path fill="#5F5F5F" d="M63.567 644.941l26.12 47.67-89 35.5z"/><path fill="#535353" d="M55.357 282.781l23.08 143.33-26.25 15.5-51.5-48z"/><path fill="#EFEFEF" d="M78.437 426.111l-15.75 36.2-10.5-20.7z"/><path fill="#6C6C6C" d="M62.687 462.311l15.75 18.8-29.21-9.4z"/><path fill="#393939" d="M78.437 481.111l-3.37 28.88-25.84-38.28z"/><path fill="#696969" d="M76.807 615.541l-19.62-32.93 17.88-72.62z"/><path fill="#4D4D4D" d="M49.227 471.711l25.84 38.28-36.71 13.37zM75.067 509.991l-17.88 72.62-11.58-41.06z"/><path fill="#3F3F3F" d="M75.067 509.991l-29.46 31.56-7.25-18.19z"/><path fill="#BFBFBF" d="M57.187 582.611l6.38 62.33-26.13-77.83z"/><path fill="#545454" d="M37.437 567.111l26.13 77.83-62.88 83.17L22.937 518.5z"/><path fill="#CECECE" d="M52.187 441.611l10.5 20.7-13.46 9.4-19.54 13.65z"/><path fill="#ADADAD" d="M45.607 541.551l11.58 41.06-19.75-15.5z"/><path fill="#6B6B6B" d="M.687 1.111l54.67 281.67-54.67 110.83z"/><path fill="#6C6C6C" d="M52.187 441.611l-22.5 43.75-29-91.75z"/><path fill="#D2D2D2" d="M29.687 485.361l19.54-13.65-10.87 51.65z"/><path fill="#C8C8C8" d="M38.357 523.361l7.25 18.19-22.67-23.051z"/><path fill="#999" d="M22.937 518.5l22.67 23.051-8.17 25.56z"/><path fill="#A4A4A4" d="M29.687 485.361l8.67 38-15.42-4.861z"/><path fill="#6B6B6B" d="M.687 393.611l29 91.75-6.75 33.139z"/><path fill="#484848" d="M.687 728.111l26 233h-26z"/><path fill="#444" d="M.687 393.611L22.937 518.5.687 728.111z"/></svg>