<?xml version="1.0" standalone="no"?>
<!DOCTYPE svg PUBLIC "-//W3C//DTD SVG 20010904//EN"
 "http://www.w3.org/TR/2001/REC-SVG-20010904/DTD/svg10.dtd">
<svg version="1.0" xmlns="http://www.w3.org/2000/svg"
 width="700.000000pt" height="700.000000pt" viewBox="0 0 700.000000 700.000000"
 preserveAspectRatio="xMidYMid meet">
<metadata>
Created by potrace 1.11, written by Peter Selinger 2001-2013
</metadata>
<g transform="translate(0.000000,700.000000) scale(0.100000,-0.100000)"
fill="#000000" stroke="none">
<path d="M0 3500 l0 -3500 3500 0 3500 0 0 3500 0 3500 -3500 0 -3500 0 0
-3500z m4030 803 c2 -2 -65 -143 -150 -313 l-154 -308 -48 24 c-26 13 -50 24
-53 24 -14 0 -2 -61 20 -106 36 -72 80 -120 167 -184 l78 -58 -772 -592 c-425
-326 -781 -600 -791 -608 -9 -8 -19 -13 -21 -11 -6 6 22 1990 27 1996 3 3 41
-8 84 -23 99 -35 256 -41 311 -11 17 10 32 21 32 26 0 5 -20 16 -45 25 -25 10
-48 22 -51 28 -4 6 62 150 146 319 l154 307 530 -265 c292 -146 533 -267 536
-270z m986 -258 c54 -25 100 -47 102 -49 2 -3 -694 -1464 -702 -1474 -3 -2
-197 86 -204 93 -3 3 701 1475 705 1475 1 0 46 -20 99 -45z m-3361 -390 c30
-47 55 -87 55 -89 0 -2 -121 -75 -269 -162 -148 -88 -267 -162 -265 -165 2 -4
116 -70 253 -148 136 -78 256 -148 266 -155 16 -11 13 -19 -36 -97 -29 -46
-56 -88 -59 -92 -4 -5 -154 83 -334 194 l-327 202 3 99 3 100 320 199 c176
109 323 199 328 199 4 0 32 -38 62 -85z m4080 -113 l320 -197 3 -101 3 -101
-327 -202 c-180 -111 -330 -199 -334 -194 -4 4 -31 44 -59 88 -39 62 -47 83
-38 91 7 6 122 76 257 154 135 79 251 147 258 153 9 7 -61 52 -250 160 -145
82 -267 153 -271 157 -8 7 99 190 112 190 3 0 150 -89 326 -198z"/>
<path d="M2950 4460 c-46 -93 -82 -171 -80 -173 11 -11 771 -387 780 -387 11
0 176 327 169 334 -2 2 -180 92 -395 199 l-390 195 -84 -168z"/>
<path d="M2868 4040 c-78 -63 -144 -83 -274 -84 l-112 -1 -4 -675 c-2 -371 -3
-677 -1 -679 2 -2 73 138 158 313 l156 317 -29 33 c-114 130 -14 342 159 340
149 -2 248 -149 195 -289 -31 -81 -130 -144 -209 -132 -28 4 -29 2 -189 -317
-88 -176 -154 -315 -147 -310 8 6 248 192 534 414 286 221 522 404 524 406 2
2 -14 25 -36 52 -95 113 -138 220 -131 324 l4 60 -268 134 c-147 74 -271 134
-275 133 -5 0 -29 -18 -55 -39z"/>
</g>
</svg>
