<?xml version="1.0" standalone="no"?>
<!DOCTYPE svg PUBLIC "-//W3C//DTD SVG 1.1//EN" "http://www.w3.org/Graphics/SVG/1.1/DTD/svg11.dtd" >
<svg xmlns="http://www.w3.org/2000/svg">
<metadata>Generated by IcoMoon</metadata>
<defs>
<font id="icomoon" horiz-adv-x="1024">
<font-face units-per-em="1024" ascent="960" descent="-64" />
<missing-glyph horiz-adv-x="1024" />
<glyph unicode="&#x20;" horiz-adv-x="512" d="" />
<glyph unicode="&#xe900;" glyph-name="icon--500px" horiz-adv-x="832" d="M145.6 287.616c0.192-0.64 5.888-15.232 8.96-22.656 17.6-39.744 42.88-75.712 75.008-106.624 32.128-30.848 69.568-54.976 111.36-71.744 43.264-17.408 88.96-26.368 136.128-26.368s93.248 8.768 136.128 26.368c41.792 16.704 79.104 40.96 111.36 71.744s57.408 66.624 74.944 106.624c18.176 41.408 27.52 85.184 27.52 130.368s-9.152 89.216-27.52 130.304c-17.472 40-42.816 75.776-74.944 106.624-32.128 30.784-69.568 54.912-111.296 71.744-43.264 17.408-88.96 26.432-136.128 26.432-47.936 0-95.744-9.216-138.176-26.432-33.984-13.76-91.712-49.216-125.312-82.624l-0.256-0.128v275.968h484.032c17.472 0.192 17.472 23.808 17.472 31.36 0 7.808 0 31.168-17.792 31.424h-523.136c-14.272 0-23.040-11.392-23.040-21.824v-388.096c0-12.608 16.32-21.632 31.552-24.576 29.696-6.016 36.352 3.008 43.712 12.608l1.024 1.216c11.072 15.808 45.504 49.024 46.016 49.408 53.888 51.584 125.952 80 202.944 80 76.672 0 148.544-28.416 202.432-80 54.144-51.776 83.968-120.32 83.968-193.152 0-73.024-29.696-141.76-83.52-193.152-53.184-50.752-127.424-80-203.712-80-51.584 0-101.504 13.184-144.32 38.208l0.192 235.968c0 31.424 14.208 65.792 38.208 91.584 27.392 29.568 65.024 45.76 106.24 45.76 39.68 0 76.864-14.4 104.64-40.512 27.392-25.984 42.56-60.8 42.56-97.792 0-78.784-64.768-140.544-147.456-140.544-15.936 0-44.928 6.72-46.208 6.912-16.704 4.8-23.808-17.408-26.112-24.768-8.96-28.224 4.608-33.792 7.296-34.624 26.56-8 44.032-9.408 67.008-9.408 116.8 0 211.84 91.008 211.84 202.816 0 110.848-95.040 201.152-211.648 201.152-57.216 0-110.912-20.992-151.232-58.816-38.4-36.224-60.352-84.416-60.352-132.416v-1.216c-0.192-6.016-0.192-147.584-0.384-193.92l-0.192 0.192c-21.952 23.168-43.648 58.816-58.112 95.168-5.632 14.272-18.368 11.84-35.712 6.656-8.384-2.112-31.36-9.024-26.112-25.152v0l0.128-0.064zM394.368 342.912c0-6.784 6.464-12.864 10.432-16.256l1.28-1.216c6.72-6.208 12.992-9.408 18.752-9.408 4.864 0 7.808 2.176 8.768 3.264 2.944 2.624 35.904 34.752 39.296 37.824l36.992-35.2c3.392-3.648 7.104-5.632 11.52-5.632 5.888 0 12.288 3.392 19.008 9.92 15.936 15.616 8 24 4.16 28.032l-37.376 35.84 39.040 37.632c8.576 8.704 1.088 18.112-6.528 25.408-10.816 10.368-21.504 13.184-28.16 7.168l-38.784-37.248-39.36 37.632c-2.048 1.984-4.8 3.072-7.552 3.072-5.248 0-11.456-3.392-18.368-9.984-12.096-11.584-14.656-19.584-8.32-25.984l39.232-37.312-39.040-37.44c-3.52-3.2-5.184-6.592-4.992-9.984v-0.128zM479.808 850.368c-62.656 0-129.536-12.224-178.432-32.384-5.184-1.984-8.32-6.016-8.96-11.584-0.576-5.376 0.896-12.416 4.608-21.568 3.136-7.424 11.072-27.2 26.816-21.376 50.112 18.432 105.6 28.416 155.968 28.416 57.216 0 112.768-10.816 164.992-31.808 41.6-16.832 80.64-41.216 123.264-76.352 3.136-2.624 6.528-3.776 9.856-3.776 8.384 0 16.32 7.808 23.168 15.168 11.328 12.16 19.2 22.4 8 32.576-40.768 36.8-85.248 64.384-140.352 86.72-59.84 23.744-123.52 36.032-188.928 35.968v0zM817.536 109.184v0c-7.552 7.168-13.952 11.392-19.648 12.928-5.632 1.6-10.816 0.448-14.784-3.392l-3.84-3.52c-38.784-37.184-84.096-66.368-134.464-86.784-52.224-21.12-107.584-31.744-164.608-31.744-57.216 0-112.576 10.752-164.608 31.744-50.304 20.416-95.68 49.6-134.592 86.784-40.512 38.784-71.040 82.176-90.624 128.768-19.264 45.632-25.472 79.744-27.584 90.944-0.192 1.024-0.384 1.792-0.384 2.432-2.752 13.12-15.488 14.080-33.664 11.328-7.488-1.216-30.656-4.608-28.608-20.416v-0.384c6.144-36.992 16.896-73.152 32.128-107.52 24.448-55.488 59.584-105.216 104.192-147.968 44.672-42.816 96.704-76.16 154.624-99.776 59.968-24.192 123.648-36.608 189.248-36.608s129.28 12.416 189.248 36.544c57.92 23.488 109.824 57.024 154.624 99.776 0 0 2.496 2.368 3.968 3.84 4.544 5.376 8.896 14.336-10.624 33.024v0z" />
<glyph unicode="&#xe901;" glyph-name="icon--arrow-down" horiz-adv-x="1072" d="M0 388.465l532.903-452.465 539.481 451.936-145.681 173.88-277.073-232.167v630.352h-226.8v-633.073l-276.015 234.435z" />
<glyph unicode="&#xe902;" glyph-name="icon--arrow-left" horiz-adv-x="978" d="M432.051 960l-432.051-508.86 431.618-515.14 165.962 139.108-221.692 264.572h601.911v216.567h-604.438l223.786 263.562z" />
<glyph unicode="&#xe903;" glyph-name="icon--arrow-right" horiz-adv-x="978" d="M545.748-64l432.051 508.86-431.545 515.14-166.035-139.108 221.692-264.572h-601.911v-216.567h604.51l-223.858-263.49z" />
<glyph unicode="&#xe904;" glyph-name="icon--arrow-up" horiz-adv-x="1072" d="M1072.384 507.535l-532.903 452.465-539.481-452.012 145.681-173.88 277.073 232.167v-630.276h226.8v632.998l275.939-234.36z" />
<glyph unicode="&#xe905;" glyph-name="icon--chevron-down" d="M896.585 740.571l140.946-168.229-522.021-437.248-515.511 437.76 142.043 167.278 374.418-318.025z" />
<glyph unicode="&#xe906;" glyph-name="icon--chevron-left" d="M824.905 63.415l-168.155-140.946-437.321 522.021 437.76 515.511 167.278-142.043-317.952-374.418z" />
<glyph unicode="&#xe907;" glyph-name="icon--chevron-right" d="M219.429 819.054l168.229 140.946 437.248-522.021-437.76-515.511-167.278 142.117 318.025 374.345z" />
<glyph unicode="&#xe908;" glyph-name="icon--chevron-up" d="M140.946 135.022l-140.946 168.229 521.947 437.321 515.584-437.76-142.117-167.278-374.345 317.952z" />
<glyph unicode="&#xe909;" glyph-name="icon--codepen" d="M1008.845 635.733l-477.867 318.601c-11.469 7.646-26.419 7.646-37.888 0l-477.867-318.601c-9.489-6.349-15.223-17.067-15.223-28.467v-318.601c0-11.332 5.734-22.050 15.223-28.399l477.867-318.601c5.734-3.755 12.356-5.666 18.91-5.666s13.175 1.911 18.91 5.734l477.867 318.601c9.489 6.281 15.223 16.998 15.223 28.399v318.532c0 11.401-5.734 22.118-15.292 28.467h0.137zM512.068 329.762l-177.425 118.238 177.425 118.238 177.493-118.238-177.493-118.238zM546.202 625.63v236.476l382.293-254.771-177.493-118.238-204.8 136.533zM477.935 625.63l-204.8-136.533-177.425 118.17 382.225 254.771v-236.407zM211.627 448l-143.292-95.437v190.942l143.292-95.505zM273.135 406.972l204.8-136.533v-236.544l-382.225 254.839 177.425 118.238zM546.202 270.438l204.8 136.533 177.493-118.17-382.293-254.703v236.339zM812.442 448l143.36 95.505v-190.942l-143.36 95.437z" />
<glyph unicode="&#xe90a;" glyph-name="icon--dribbble" d="M512-64c-282.368 0-512 229.632-512 512s229.568 512 512 512c282.368 0 512-229.568 512-512s-229.632-512-512-512v0zM943.808 377.984c-14.912 4.736-135.424 40.576-272.384 18.624 57.216-157.184 80.384-285.184 84.928-311.808 98.048 66.304 168 171.392 187.456 293.184v0zM682.816 44.8c-6.592 38.4-31.808 172.032-93.184 331.584-1.024-0.384-1.984-0.576-2.816-1.024-246.784-86.016-335.424-256.96-343.168-272.96 74.176-57.856 167.424-92.48 268.416-92.48 60.608-0.064 118.464 12.48 170.752 34.88v0 0zM187.008 155.008c9.984 17.024 129.984 215.616 355.392 288.576 5.568 1.792 11.328 3.584 17.216 5.184-11.008 24.832-22.976 49.792-35.392 74.176-218.176-65.408-430.208-62.592-449.408-62.4-0.192-4.416-0.192-8.832-0.192-13.376 0-112.192 42.624-214.784 112.384-292.16v0 0zM84.032 537.024c19.584-0.192 199.808-1.024 404.416 53.184-72.384 128.832-150.592 237.184-162.176 252.992-122.432-57.792-214.016-170.624-242.24-306.176v0 0zM409.6 872.576c12.032-16.192 91.584-124.416 163.2-256 155.584 58.176 221.376 146.816 229.184 158.016-77.184 68.608-178.88 110.208-289.984 110.208-35.2-0.192-69.632-4.416-102.4-12.224v0zM850.624 723.776c-9.28-12.416-82.624-106.432-244.224-172.416 10.176-20.8 20.032-41.984 28.992-63.424 3.264-7.616 6.4-14.976 9.408-22.592 145.536 18.176 290.176-11.008 304.576-14.016-1.024 103.168-38.016 198.016-98.752 272.448v0 0z" />
<glyph unicode="&#xe90b;" glyph-name="icon--expand" d="M1023.699 515.428l-33.388 408.277-410.783 36.296-11.631-132.449 211.056-18.549-261.189-261.189 93.948-94.048 262.191 262.292 17.245-211.458zM0 380.472l33.388-408.277 410.783-36.195 11.731 132.349-211.157 18.549 261.289 261.289-93.948 93.948-262.292-262.292-17.245 211.458z" />
<glyph unicode="&#xe90c;" glyph-name="icon--facebook" horiz-adv-x="512" d="M352 768h160v192h-160c-123.52 0-224-100.48-224-224v-96h-128v-192h128v-512h192v512h160l32 192h-192v96c0 17.344 14.656 32 32 32z" />
<glyph unicode="&#xe90d;" glyph-name="icon--flickr" d="M800 576c-70.656 0-128-57.408-128-128 0-70.656 57.344-128 128-128s128 57.344 128 128c0 70.592-57.344 128-128 128zM800 672v0c123.776 0 224-100.288 224-224 0-123.776-100.224-224-224-224s-224 100.224-224 224c0 123.712 100.224 224 224 224zM0 448c0 123.712 100.288 224 224 224s224-100.288 224-224c0-123.776-100.288-224-224-224s-224 100.224-224 224z" />
<glyph unicode="&#xe90e;" glyph-name="icon--github" d="M512 927.872c-282.752 0-512-220.288-512-492.096 0-217.408 146.688-401.792 350.144-466.944 25.6-4.544 35.008 10.688 35.008 23.68 0 11.776-0.512 50.496-0.704 91.584-142.464-29.696-172.48 58.112-172.48 58.112-23.296 56.896-56.832 72-56.832 72-46.464 30.592 3.52 29.824 3.52 29.824 51.392-3.456 78.464-50.688 78.464-50.688 45.696-75.2 119.808-53.376 148.992-40.896 4.608 31.808 17.856 53.44 32.512 65.856-113.728 12.352-233.28 54.592-233.28 243.2 0 53.696 20.032 97.6 52.736 132.096-5.312 12.416-22.848 62.4 4.928 130.24 0 0 43.008 13.248 140.864-50.432 40.832 10.816 84.608 16.32 128.128 16.512 43.52-0.192 87.36-5.696 128.256-16.576 97.728 63.68 140.672 50.432 140.672 50.432 27.84-67.776 10.368-117.824 5.056-130.176 32.832-34.496 52.608-78.4 52.608-132.096 0-188.992-119.744-230.592-233.728-242.816 18.368-15.232 34.752-45.184 34.752-91.072 0-65.856-0.64-118.848-0.64-135.040 0-13.12 9.28-28.416 35.264-23.616 203.328 65.216 349.824 249.6 349.824 466.88 0 271.744-229.248 492.096-512 492.096l-0.064-0.064z" />
<glyph unicode="&#xe90f;" glyph-name="icon--home" d="M521.947 813.714l-521.947-437.321 140.946-168.229 45.275 37.961v-155.502h222.793v198.656h219.429v-198.656h222.793v155.575l44.178-37.522 142.117 167.278z" />
<glyph unicode="&#xe910;" glyph-name="icon--instagram" d="M928 960h-832c-52.8 0-96-43.2-96-96v-832c0-52.8 43.2-96 96-96h832c52.8 0 96 43.2 96 96v832c0 52.8-43.2 96-96 96zM704 800c0 17.6 14.4 32 32 32h128c17.6 0 32-14.4 32-32v-128c0-17.6-14.4-32-32-32h-128c-17.6 0-32 14.4-32 32v128zM512 640c105.984 0 192-86.016 192-192s-86.016-192-192-192-192 86.016-192 192 86.016 192 192 192zM896 96v0c0-17.6-14.4-32-32-32h-704c-17.536 0-32 14.4-32 32v0 416h70.464c-4.288-20.608-6.464-41.984-6.464-64 0-176.768 143.168-320 320-320 176.896 0 320 143.232 320 320 0 22.016-2.176 43.392-6.4 64h70.4v-416z" />
<glyph unicode="&#xe911;" glyph-name="icon--linkedin" d="M365.714 630.857h202.459v-103.717h2.853c28.087 50.542 97.061 103.717 199.826 103.717 213.65 0 253.147-132.974 253.147-306.030v-352.256h-211.017v312.32c0 74.533-1.536 170.423-109.714 170.423-109.861 0-126.683-81.115-126.683-164.937v-317.806h-210.871v658.286zM0 630.857h219.429v-658.286h-219.429v658.286zM219.429 813.714c0-60.562-49.152-109.714-109.714-109.714s-109.714 49.152-109.714 109.714 49.152 109.714 109.714 109.714 109.714-49.152 109.714-109.714z" />
<glyph unicode="&#xe912;" glyph-name="icon--location" d="M508.183 960c-178.362 0-322.001-127.348-322.001-322.001s322.001-682.543 322.001-682.543 322.001 487.889 322.001 682.543c0 194.653-143.639 322.001-322.001 322.001zM508.183 489.519c-88.25 0-159.837 71.587-159.837 159.837s71.587 159.837 159.837 159.837 159.837-71.587 159.837-159.837c0-88.343-71.587-159.837-159.837-159.837z" />
<glyph unicode="&#xe913;" glyph-name="icon--mail" d="M0 768v-657.856h1024.384v657.856h-1024.384zM726.336 640l-214.144-126.592-214.144 126.592h428.288zM128 238.144v353.728l384.192-227.072 384.192 227.072v-353.664h-768.384z" />
<glyph unicode="&#xe914;" glyph-name="icon--phone" d="M750.871 345.6c-68.236-68.236-68.236-136.471-136.471-136.471s-136.471 68.236-204.8 136.471-136.471 136.471-136.471 204.8 68.236 68.236 136.471 136.471-136.471 273.129-204.8 273.129-204.8-204.8-204.8-204.8c0-136.564 140.288-413.324 273.129-546.071s409.507-273.129 546.071-273.129c0 0 204.8 136.564 204.8 204.8s-204.8 273.129-273.129 204.8z" />
<glyph unicode="&#xe915;" glyph-name="icon--play" horiz-adv-x="794" d="M0-64v1024l793.823-512.031-793.823-511.969zM187.237 616.42v-336.84l261.133 168.389-261.133 168.451z" />
<glyph unicode="&#xe916;" glyph-name="icon--twitter" d="M1024 765.632c-37.632-16.832-78.208-28.032-120.512-33.024 43.392 25.984 76.544 67.2 92.416 116.224-40.576-24-85.568-41.6-133.312-51.008-38.464 40.832-93.056 66.176-153.472 66.176-116.032 0-209.92-94.016-209.92-209.984 0-16.384 1.792-32.384 5.376-47.808-174.592 8.832-329.344 92.416-432.896 219.584-17.984-30.976-28.416-67.2-28.416-105.6 0-72.832 36.992-137.216 93.312-174.784-34.432 1.024-66.816 10.624-95.168 26.176 0-0.832 0-1.792 0-2.624 0-101.824 72.32-186.752 168.512-206.016-17.6-4.736-36.224-7.36-55.36-7.36-13.568 0-26.624 1.344-39.616 3.776 26.816-83.392 104.32-144.256 196.16-145.984-72-56.384-162.432-89.984-260.928-89.984-17.024 0-33.6 1.024-50.176 3.008 93.184-59.776 203.52-94.4 322.048-94.4 386.24 0 597.696 320.192 597.696 597.824 0 9.216-0.192 18.176-0.64 27.2 41.088 29.312 76.672 66.368 104.896 108.608v0z" />
</font>
</defs>
</svg>
