<?xml version="1.0" encoding="utf-8"?>
<!-- Generator: Adobe Illustrator 20.1.0, SVG Export Plug-In . SVG Version: 6.00 Build 0)  -->
<svg version="1.1" id="Layer_1" xmlns="http://www.w3.org/2000/svg" xmlns:xlink="http://www.w3.org/1999/xlink" x="0px" y="0px"
	 width="126.5px" height="126.5px" viewBox="0 0 126.5 126.5" style="enable-background:new 0 0 126.5 126.5;" xml:space="preserve"
	>
<style type="text/css">
	.st0{fill:#a2ffe8;}
	.st1{fill:#2EFFD1;}
</style>
<g>
	<g>
		<path class="st0" d="M98.3,3h-70c-0.3,0-0.5-0.2-0.5-0.5S28,2,28.3,2h70c0.3,0,0.5,0.2,0.5,0.5S98.5,3,98.3,3z"/>
	</g>
	<g>
		<circle class="st0" cx="98.2" cy="2.5" r="2.5"/>
	</g>
	<g>
		<circle class="st0" cx="28.2" cy="2.5" r="2.5"/>
	</g>
</g>
<g>
	<g>
		<path class="st0" d="M98.3,124.5h-70c-0.3,0-0.5-0.2-0.5-0.5s0.2-0.5,0.5-0.5h70c0.3,0,0.5,0.2,0.5,0.5S98.5,124.5,98.3,124.5z"/>
	</g>
	<g>
		<circle class="st0" cx="98.2" cy="124" r="2.5"/>
	</g>
	<g>
		<circle class="st0" cx="28.2" cy="124" r="2.5"/>
	</g>
</g>
<g>
	<g>
		<path class="st0" d="M124,98.8c-0.3,0-0.5-0.2-0.5-0.5v-70c0-0.3,0.2-0.5,0.5-0.5s0.5,0.2,0.5,0.5v70
			C124.5,98.5,124.3,98.8,124,98.8z"/>
	</g>
	<g>
		<circle class="st0" cx="124" cy="98.2" r="2.5"/>
	</g>
	<g>
		<circle class="st0" cx="124" cy="28.2" r="2.5"/>
	</g>
</g>
<g>
	<g>
		<path class="st0" d="M2.5,98.8c-0.3,0-0.5-0.2-0.5-0.5v-70c0-0.3,0.2-0.5,0.5-0.5S3,28,3,28.2v70C3,98.5,2.8,98.8,2.5,98.8z"/>
	</g>
	<g>
		<circle class="st0" cx="2.5" cy="98.2" r="2.5"/>
	</g>
	<g>
		<circle class="st0" cx="2.5" cy="28.2" r="2.5"/>
	</g>
</g>
<g>
	<path class="st0" d="M63.3,124C29.8,124,2.5,96.7,2.5,63.2S29.8,2.5,63.3,2.5S124,29.8,124,63.2S96.7,124,63.3,124z M63.3,4.5
		C30.9,4.5,4.5,30.9,4.5,63.2S30.9,122,63.3,122S122,95.6,122,63.2S95.6,4.5,63.3,4.5z"/>
</g>
<path class="st1" d="M63,2.5l-7.9,60.4l3.3-0.6c0.1,0,7-1.3,10.2,2.3l-3.5,1.2l6.7,20l34.6-11.6l-6.7-20L96,55.4
	c0.1-1.6,1-3.1,2.5-4.6c2-2,4.3-3.1,4.3-3.1l3.1-1.4L63,2.5z M100.3,71.1l-25.5,8.5l-3.7-10.9l25.5-8.5L100.3,71.1z M91.2,57
	l-17.8,6c-2.8-4.6-8.5-5.8-12.8-5.7l5.2-41l6.9,20.6c-2.5,1.5-3.5,4.6-2.6,7.4c1.1,3.4,4.8,5.1,8.2,4c3.4-1.1,5-4.7,3.9-8.1
	c-1-2.9-3.9-4.6-6.8-4.3l-6.9-20.6l29.2,29.7C94.2,47.5,90.6,51.7,91.2,57z"/>
</svg>
