<?xml version="1.0" encoding="utf-8"?>
<!-- Generator: Adobe Illustrator 20.1.0, SVG Export Plug-In . SVG Version: 6.00 Build 0)  -->
<svg version="1.1" id="Layer_1" xmlns:sketch="http://www.bohemiancoding.com/sketch/ns"
	 xmlns="http://www.w3.org/2000/svg" xmlns:xlink="http://www.w3.org/1999/xlink" x="0px" y="0px" width="53.3px" height="57px"
	 viewBox="0 0 53.3 57" style="enable-background:new 0 0 53.3 57;" xml:space="preserve">
<style type="text/css">
	.st0{fill:#FFFFFF;}
</style>
<path id="Fill-2" sketch:type="MSShapeGroup" class="st0" d="M15,25.2c-4.2-1.3-6.1-2.8-6.1-5.7C8.9,14.8,15,9,17,9
	c0.8,0,1.3,0.5,1.3,1.8C18.2,12.6,17.1,18.1,15,25.2L15,25.2z M44.1,21.1c4.3-6.2,5.2-6.9,8-7.1c0.9-1,1.3-2.3,1.2-3.4
	c0-3.6-2.4-7.1-6.8-7.1c-3.7,0-5.6,1-9.5,10.2c-2.8,6.6-6.8,14-10,17.9c-1.3,0-2.5,0.1-3.5,0.2c3.4-13.7,5.4-23.4,5.4-25.6
	c0-3.6-2.3-6.3-7.1-6.3C13.2,0,0,12.1,0,22c0,6,5.1,9.6,11.1,9.6c0.6,0,1.5-0.1,2.1-0.2l-0.9,4.2c-2.9,4.1-4.6,8.4-4.6,10.9
	c0,3.8,4,7.3,7.8,7.3c1.3,0,2.3-0.3,2.9-0.9l3.2-14.7c3.2,1,4.7,4.3,9.1,13.7c1.8,3.8,3,4.8,5.7,4.8c4.9,0,10.2-3.4,10.2-7.3
	c0-0.8-0.3-1.9-0.8-2.5c-0.8,0.2-2.2,0.4-2.8,0.4c-1,0-1.8-0.4-2.6-2c-2.4-4.9-4.9-9.8-7.4-11.4C36.3,31.3,39.9,27.2,44.1,21.1
	L44.1,21.1z"/>
</svg>
