<?xml version="1.0" encoding="utf-8"?>
<!-- Generator: Adobe Illustrator 20.1.0, SVG Export Plug-In . SVG Version: 6.00 Build 0)  -->
<svg version="1.1" id="Layer_1" xmlns="http://www.w3.org/2000/svg" xmlns:xlink="http://www.w3.org/1999/xlink" x="0px" y="0px"
	 width="1280px" height="1024px" preserveAspectRatio="none">
<g id="XMLID_1_">
	<g>
		<polygon class="st0" points="1280,925 1280,1024 1167.8,1024 		"/>
		<polygon class="st0" points="1280,349 1280,925 803.9,800.4 		"/>
		<polygon class="st0" points="1280,0.5 1280,349 1055.5,0.5 		"/>
		<polygon class="st0" points="1055.5,0.5 1280,349 741.2,312.6 		"/>
		<polygon class="st0" points="1280,349 803.9,800.4 741.2,312.6 		"/>
		<polygon class="st0" points="1280,925 1167.8,1024 803.9,800.4 		"/>
		<polygon class="st0" points="1167.8,1024 800.6,1024 803.9,800.4 		"/>
		<polygon class="st0" points="1055.5,0.5 741.2,312.6 741.2,0.5 		"/>
		<polygon class="st0" points="741.2,312.6 803.9,800.4 363.8,646.5 		"/>
		<polygon class="st0" points="803.9,800.4 800.6,1024 457.4,1024 		"/>
		<polygon class="st0" points="803.9,800.4 457.4,1024 363.8,646.5 		"/>
		<polygon class="st0" points="741.2,0.5 741.2,312.6 538.5,0 741.2,0 		"/>
		<polygon class="st0" points="538.5,0 741.2,312.6 361.1,314 		"/>
		<polygon class="st0" points="741.2,312.6 363.8,646.5 548.6,361.2 		"/>
		<polygon class="st0" points="741.2,312.6 548.6,361.2 361.1,314 		"/>
		<polygon class="st0" points="548.6,361.2 363.8,646.5 361.1,314 		"/>
		<polygon class="st0" points="538.5,0 361.1,314 253.3,189.9 		"/>
		<polygon class="st0" points="538.5,0 253.3,189.9 292.5,0 		"/>
		<polygon class="st0" points="363.8,646.5 457.4,1024 243.9,1024 		"/>
		<polygon class="st0" points="361.1,314 363.8,646.5 253.3,189.9 		"/>
		<polygon class="st0" points="253.3,189.9 363.8,646.5 0,307.2 		"/>
		<polygon class="st0" points="363.8,646.5 243.9,1024 0,872 		"/>
		<polygon class="st0" points="363.8,646.5 0,872 0,638.3 		"/>
		<polygon class="st0" points="363.8,646.5 0,638.3 107.4,524.8 		"/>
		<polygon class="st0" points="363.8,646.5 107.4,524.8 0,307.2 		"/>
		<polygon class="st0" points="292.5,0 253.3,189.9 0,0 		"/>
		<polygon class="st0" points="253.3,189.9 0,307.2 0,0 		"/>
		<polygon class="st0" points="243.9,1024 0,1024 0,872 		"/>
		<polygon class="st0" points="0,307.2 107.4,524.8 0,638.3 		"/>
	</g>
</g>
</svg>
